<?xml version="1.0" encoding="UTF-8" standalone="no"?>
<!DOCTYPE svg PUBLIC "-//W3C//DTD SVG 1.1//EN" "http://www.w3.org/Graphics/SVG/1.1/DTD/svg11.dtd">
<svg width="100%" height="100%" viewBox="0 0 24 24" version="1.1" xmlns="http://www.w3.org/2000/svg" xmlns:xlink="http://www.w3.org/1999/xlink" xml:space="preserve" xmlns:serif="http://www.serif.com/" style="fill-rule:evenodd;clip-rule:evenodd;stroke-linejoin:round;stroke-miterlimit:2;">
    <rect x="0" y="0" width="24" height="24" style="fill:none;fill-rule:nonzero;"/>
    <rect x="3.613" y="7.588" width="16.758" height="12.143" style="fill:rgb(137,106,28);"/>
    <path d="M14,6L14,4L10,4L10,6L14,6ZM4,8L4,19L20,19L20,8L4,8ZM20,6C21.11,6 22,6.89 22,8L22,19C22,20.11 21.11,21 20,21L4,21C2.89,21 2,20.11 2,19L2.01,8C2.01,6.89 2.89,6 4,6L8,6L8,4C8,2.89 8.89,2 10,2L14,2C15.11,2 16,2.89 16,4L16,6L20,6Z" style="fill:rgb(215,167,47);fill-rule:nonzero;"/>
</svg>
