<?xml version="1.0" encoding="UTF-8" standalone="no"?>
<!DOCTYPE svg PUBLIC "-//W3C//DTD SVG 1.1//EN" "http://www.w3.org/Graphics/SVG/1.1/DTD/svg11.dtd">
<svg width="100%" height="100%" viewBox="0 0 24 24" version="1.1" xmlns="http://www.w3.org/2000/svg" xmlns:xlink="http://www.w3.org/1999/xlink" xml:space="preserve" xmlns:serif="http://www.serif.com/" style="fill-rule:evenodd;clip-rule:evenodd;stroke-linejoin:round;stroke-miterlimit:2;">
    <rect x="0" y="0" width="24" height="24" style="fill:none;fill-rule:nonzero;"/>
    <g transform="matrix(1,0,0,1,0,-2.15825)">
        <path d="M21,15L14,15L14,16C14,16.47 13.81,16.9 13.52,17.25C13.15,17.7 12.6,18 12,18C11.4,18 10.85,17.7 10.48,17.25C10.19,16.9 10,16.47 10,16L10,15L3,15L3,19C3,20.1 3.9,21 5,21L19,21C20.1,21 21,20.1 21,19L21,15ZM5,17L8.13,17C8.15,17.09 8.19,17.17 8.22,17.25C8.46,17.93 8.87,18.53 9.4,19L5,19L5,17ZM19,19L14.6,19C15.14,18.53 15.55,17.93 15.78,17.25C15.81,17.17 15.85,17.09 15.87,17L19,17L19,19Z" style="fill:rgb(255,209,0);fill-rule:nonzero;stroke:rgb(255,142,0);stroke-width:1px;"/>
        <g transform="matrix(1,0,0,1,0,-7.6835)">
            <path d="M21,15L14,15L14,16C14,16.47 13.81,16.9 13.52,17.25C13.15,17.7 12.6,18 12,18C11.4,18 10.85,17.7 10.48,17.25C10.19,16.9 10,16.47 10,16L10,15L3,15L3,19C3,20.1 3.9,21 5,21L19,21C20.1,21 21,20.1 21,19L21,15ZM5,17L8.13,17C8.15,17.09 8.19,17.17 8.22,17.25C8.46,17.93 8.87,18.53 9.4,19L5,19L5,17ZM19,19L14.6,19C15.14,18.53 15.55,17.93 15.78,17.25C15.81,17.17 15.85,17.09 15.87,17L19,17L19,19Z" style="fill:rgb(255,209,0);fill-rule:nonzero;stroke:rgb(255,142,0);stroke-width:1px;"/>
        </g>
    </g>
</svg>
